<svg width="26" height="21" viewBox="0 0 20 25" fill="none" xmlns="http://www.w3.org/2000/svg">
<path d="M17.7604 9.53674e-07H2.23958C1.61458 9.53674e-07 1.08507 0.271268 0.651042 0.813803C0.217014 1.35634 0 2.01823 0 2.79948V8.33333H2.23958V2.79948H17.7604V22.2005H2.23958V16.6667H0V22.2005C0 22.9818 0.217014 23.6437 0.651042 24.1862C1.08507 24.7287 1.61458 25 2.23958 25H17.7604C18.3854 25 18.9149 24.7287 19.349 24.1862C19.783 23.6437 20 22.9818 20 22.2005V2.79948C20 2.01823 19.783 1.35634 19.349 0.813803C18.9149 0.271268 18.3854 9.53674e-07 17.7604 9.53674e-07ZM7.86458 17.4479L9.42708 19.4661L15 12.5L9.42708 5.53385L7.86458 7.48698L10.7292 11.1328H0V13.8672H10.7292L7.86458 17.4479Z" fill="#FFDE16"/>
</svg>
