<svg width="25" height="21" viewBox="0 0 25 21" fill="none" xmlns="http://www.w3.org/2000/svg">
<path d="M15.9043 0.6875C14.6631 0.6875 13.5993 1.17483 12.7128 2.14949C11.8262 3.12415 11.383 4.30348 11.383 5.6875C11.383 7.07152 11.8262 8.25085 12.7128 9.22551C13.5993 10.2002 14.6631 10.6875 15.9043 10.6875C17.1454 10.6875 18.2092 10.2002 19.0957 9.22551C19.9823 8.25085 20.4255 7.07152 20.4255 5.6875C20.4255 4.30348 19.9823 3.12415 19.0957 2.14949C18.2092 1.17483 17.1454 0.6875 15.9043 0.6875ZM15.9043 3.08516C16.578 3.08516 17.1454 3.33857 17.6064 3.84539C18.0674 4.35222 18.2979 4.96625 18.2979 5.6875C18.2979 6.40875 18.0674 7.02278 17.6064 7.52961C17.1454 8.03643 16.578 8.28984 15.9043 8.28984C15.2305 8.28984 14.6631 8.03643 14.2021 7.52961C13.7411 7.02278 13.5106 6.40875 13.5106 5.6875C13.5106 4.96625 13.7411 4.35222 14.2021 3.84539C14.6631 3.33857 15.2305 3.08516 15.9043 3.08516ZM3.40426 4.43019V8.17288H0V10.6875H3.40426V14.4302H5.69149V10.6875H9.09574V8.17288H5.69149V4.43019H3.40426ZM15.9043 11.9156C14.7695 11.9156 13.5284 12.1105 12.1809 12.5004C10.656 12.9292 9.43262 13.475 8.51064 14.1378C7.37589 14.9565 6.80851 15.8922 6.80851 16.9448V20.6875H25V16.9448C25 15.8922 24.4326 14.9565 23.2979 14.1378C22.3759 13.475 21.1525 12.9292 19.6277 12.5004C18.2801 12.1105 17.039 11.9156 15.9043 11.9156ZM15.9043 14.3132C16.9681 14.3132 18.0674 14.4692 19.2021 14.7811C20.195 15.093 21.0461 15.4633 21.7553 15.8922C22.4645 16.321 22.8191 16.6719 22.8191 16.9448V18.2898H8.98936V16.9448C8.98936 16.6719 9.34397 16.321 10.0532 15.8922C10.7624 15.4633 11.6135 15.093 12.6064 14.7811C13.7411 14.4692 14.8404 14.3132 15.9043 14.3132Z" fill="#FFDE16"/>
</svg>
